<mxfile host="app.diagrams.net" modified="2023-04-15T23:06:45.317Z" agent="Mozilla/5.0 (Windows NT 10.0; Win64; x64) AppleWebKit/537.36 (KHTML, like Gecko) Chrome/112.0.0.0 Safari/537.36" etag="wH0emPEEwC8bbb4ea51N" version="21.1.8" type="device">
  <diagram id="C5RBs43oDa-KdzZeNtuy" name="Page-1">
    <mxGraphModel dx="1050" dy="1750" grid="1" gridSize="10" guides="1" tooltips="1" connect="1" arrows="1" fold="1" page="1" pageScale="1" pageWidth="827" pageHeight="1169" math="0" shadow="0">
      <root>
        <mxCell id="WIyWlLk6GJQsqaUBKTNV-0" />
        <mxCell id="WIyWlLk6GJQsqaUBKTNV-1" parent="WIyWlLk6GJQsqaUBKTNV-0" />
        <mxCell id="cExCAnARuNKjbpSgv8N--28" style="edgeStyle=orthogonalEdgeStyle;rounded=0;orthogonalLoop=1;jettySize=auto;html=1;" parent="WIyWlLk6GJQsqaUBKTNV-1" source="cExCAnARuNKjbpSgv8N--27" target="cExCAnARuNKjbpSgv8N--37" edge="1">
          <mxGeometry relative="1" as="geometry">
            <mxPoint x="703.2850000000001" y="-380" as="targetPoint" />
          </mxGeometry>
        </mxCell>
        <mxCell id="cExCAnARuNKjbpSgv8N--30" value="NÃO" style="edgeLabel;html=1;align=center;verticalAlign=middle;resizable=0;points=[];" parent="cExCAnARuNKjbpSgv8N--28" vertex="1" connectable="0">
          <mxGeometry x="-0.7691" relative="1" as="geometry">
            <mxPoint as="offset" />
          </mxGeometry>
        </mxCell>
        <mxCell id="RAGIyue1oJIA4O3M2heJ-15" value="SIM" style="edgeStyle=orthogonalEdgeStyle;rounded=0;orthogonalLoop=1;jettySize=auto;html=1;exitX=0.5;exitY=1;exitDx=0;exitDy=0;" parent="WIyWlLk6GJQsqaUBKTNV-1" source="cExCAnARuNKjbpSgv8N--27" target="RAGIyue1oJIA4O3M2heJ-7" edge="1">
          <mxGeometry relative="1" as="geometry" />
        </mxCell>
        <mxCell id="cExCAnARuNKjbpSgv8N--27" value="ESTOQUE&lt;br&gt;&amp;gt;&lt;br&gt;VENDA" style="rhombus;whiteSpace=wrap;html=1;fillColor=#D4E1F5;" parent="WIyWlLk6GJQsqaUBKTNV-1" vertex="1">
          <mxGeometry x="369.88" y="-600" width="112.48" height="90" as="geometry" />
        </mxCell>
        <mxCell id="cExCAnARuNKjbpSgv8N--32" value="FIM" style="ellipse;whiteSpace=wrap;html=1;fillColor=#D4E1F5;" parent="WIyWlLk6GJQsqaUBKTNV-1" vertex="1">
          <mxGeometry x="670" y="-120" width="97.04" height="50" as="geometry" />
        </mxCell>
        <mxCell id="RAGIyue1oJIA4O3M2heJ-22" style="edgeStyle=orthogonalEdgeStyle;rounded=0;orthogonalLoop=1;jettySize=auto;html=1;exitX=1;exitY=0.5;exitDx=0;exitDy=0;entryX=0;entryY=0.5;entryDx=0;entryDy=0;entryPerimeter=0;" parent="WIyWlLk6GJQsqaUBKTNV-1" source="cExCAnARuNKjbpSgv8N--33" target="RAGIyue1oJIA4O3M2heJ-0" edge="1">
          <mxGeometry relative="1" as="geometry" />
        </mxCell>
        <mxCell id="cExCAnARuNKjbpSgv8N--33" value="INICIO" style="ellipse;whiteSpace=wrap;html=1;fillColor=#D4E1F5;" parent="WIyWlLk6GJQsqaUBKTNV-1" vertex="1">
          <mxGeometry x="86.5" y="-1145" width="97.04" height="50" as="geometry" />
        </mxCell>
        <mxCell id="RAGIyue1oJIA4O3M2heJ-41" style="edgeStyle=orthogonalEdgeStyle;rounded=0;orthogonalLoop=1;jettySize=auto;html=1;entryX=1;entryY=0.5;entryDx=0;entryDy=0;entryPerimeter=0;" parent="WIyWlLk6GJQsqaUBKTNV-1" source="cExCAnARuNKjbpSgv8N--37" target="RAGIyue1oJIA4O3M2heJ-10" edge="1">
          <mxGeometry relative="1" as="geometry">
            <Array as="points">
              <mxPoint x="638" y="-355" />
            </Array>
          </mxGeometry>
        </mxCell>
        <mxCell id="cExCAnARuNKjbpSgv8N--37" value="&lt;span style=&quot;&quot;&gt;&lt;font style=&quot;font-size: 10px;&quot;&gt;SALDO INSUFICIENTE&lt;/font&gt;&lt;br&gt;&lt;/span&gt;" style="strokeWidth=1;html=1;shape=mxgraph.flowchart.display;whiteSpace=wrap;fillColor=#D4E1F5;" parent="WIyWlLk6GJQsqaUBKTNV-1" vertex="1">
          <mxGeometry x="560" y="-465" width="155.93" height="60" as="geometry" />
        </mxCell>
        <mxCell id="cExCAnARuNKjbpSgv8N--44" value="&lt;font size=&quot;1&quot; color=&quot;#ff0000&quot; style=&quot;&quot;&gt;&lt;b style=&quot;font-size: 17px;&quot;&gt;FLUXOGRAMA DO CONTROLE ESTOQUE DE PEÇA&lt;/b&gt;&lt;/font&gt;" style="text;html=1;strokeColor=none;fillColor=none;align=center;verticalAlign=middle;whiteSpace=wrap;rounded=0;" parent="WIyWlLk6GJQsqaUBKTNV-1" vertex="1">
          <mxGeometry x="520" y="-970" width="181" height="60" as="geometry" />
        </mxCell>
        <mxCell id="RAGIyue1oJIA4O3M2heJ-23" style="edgeStyle=orthogonalEdgeStyle;rounded=0;orthogonalLoop=1;jettySize=auto;html=1;exitX=0.5;exitY=1;exitDx=0;exitDy=0;exitPerimeter=0;entryX=0.458;entryY=0.167;entryDx=0;entryDy=0;entryPerimeter=0;" parent="WIyWlLk6GJQsqaUBKTNV-1" source="RAGIyue1oJIA4O3M2heJ-0" target="RAGIyue1oJIA4O3M2heJ-1" edge="1">
          <mxGeometry relative="1" as="geometry" />
        </mxCell>
        <mxCell id="RAGIyue1oJIA4O3M2heJ-0" value="&lt;span style=&quot;&quot;&gt;&lt;font style=&quot;font-size: 10px;&quot;&gt;INFORME O VALOR&lt;br&gt;&amp;nbsp;DO SALDO&lt;/font&gt;&lt;br&gt;&lt;/span&gt;" style="strokeWidth=1;html=1;shape=mxgraph.flowchart.display;whiteSpace=wrap;fillColor=#D4E1F5;" parent="WIyWlLk6GJQsqaUBKTNV-1" vertex="1">
          <mxGeometry x="254.84" y="-1150" width="138.41" height="60" as="geometry" />
        </mxCell>
        <mxCell id="RAGIyue1oJIA4O3M2heJ-24" style="edgeStyle=orthogonalEdgeStyle;rounded=0;orthogonalLoop=1;jettySize=auto;html=1;exitX=0.5;exitY=1;exitDx=0;exitDy=0;entryX=0.534;entryY=-0.034;entryDx=0;entryDy=0;entryPerimeter=0;" parent="WIyWlLk6GJQsqaUBKTNV-1" source="RAGIyue1oJIA4O3M2heJ-1" target="RAGIyue1oJIA4O3M2heJ-2" edge="1">
          <mxGeometry relative="1" as="geometry" />
        </mxCell>
        <mxCell id="RAGIyue1oJIA4O3M2heJ-1" value="&lt;font style=&quot;font-size: 10px;&quot;&gt;&lt;br&gt;&quot;ESTOQUE&quot;&lt;/font&gt;" style="html=1;strokeWidth=1;shape=manualInput;whiteSpace=wrap;rounded=1;size=26;arcSize=11;fillColor=#D4E1F5;" parent="WIyWlLk6GJQsqaUBKTNV-1" vertex="1">
          <mxGeometry x="284.96000000000004" y="-1070" width="90" height="50" as="geometry" />
        </mxCell>
        <mxCell id="RAGIyue1oJIA4O3M2heJ-25" style="edgeStyle=orthogonalEdgeStyle;rounded=0;orthogonalLoop=1;jettySize=auto;html=1;exitX=0.5;exitY=1;exitDx=0;exitDy=0;exitPerimeter=0;" parent="WIyWlLk6GJQsqaUBKTNV-1" source="RAGIyue1oJIA4O3M2heJ-2" target="RAGIyue1oJIA4O3M2heJ-5" edge="1">
          <mxGeometry relative="1" as="geometry" />
        </mxCell>
        <mxCell id="RAGIyue1oJIA4O3M2heJ-2" value="&lt;span style=&quot;font-size: 10px;&quot;&gt;&lt;br&gt;&lt;br&gt;INFORME O Nº TIPO DA ENTRADA:&lt;br&gt;1-COMPRA;&lt;br&gt;2-VENDA;&lt;br&gt;&lt;br&gt;&lt;/span&gt;" style="strokeWidth=1;html=1;shape=mxgraph.flowchart.display;whiteSpace=wrap;fillColor=#D4E1F5;" parent="WIyWlLk6GJQsqaUBKTNV-1" vertex="1">
          <mxGeometry x="220" y="-990" width="193.42" height="70" as="geometry" />
        </mxCell>
        <mxCell id="RAGIyue1oJIA4O3M2heJ-18" value="NÃO" style="edgeStyle=orthogonalEdgeStyle;rounded=0;orthogonalLoop=1;jettySize=auto;html=1;exitX=1;exitY=0.5;exitDx=0;exitDy=0;" parent="WIyWlLk6GJQsqaUBKTNV-1" source="RAGIyue1oJIA4O3M2heJ-3" target="RAGIyue1oJIA4O3M2heJ-9" edge="1">
          <mxGeometry relative="1" as="geometry" />
        </mxCell>
        <mxCell id="RAGIyue1oJIA4O3M2heJ-19" value="SIM" style="edgeStyle=orthogonalEdgeStyle;rounded=0;orthogonalLoop=1;jettySize=auto;html=1;exitX=0;exitY=0.5;exitDx=0;exitDy=0;entryX=0.5;entryY=0;entryDx=0;entryDy=0;entryPerimeter=0;" parent="WIyWlLk6GJQsqaUBKTNV-1" source="RAGIyue1oJIA4O3M2heJ-3" target="RAGIyue1oJIA4O3M2heJ-8" edge="1">
          <mxGeometry x="-0.0777" relative="1" as="geometry">
            <mxPoint x="1" as="offset" />
          </mxGeometry>
        </mxCell>
        <mxCell id="RAGIyue1oJIA4O3M2heJ-3" value="&lt;font style=&quot;font-size: 10px;&quot;&gt;NUMERO == 1&lt;/font&gt;" style="rhombus;whiteSpace=wrap;html=1;fillColor=#D4E1F5;" parent="WIyWlLk6GJQsqaUBKTNV-1" vertex="1">
          <mxGeometry x="264.79" y="-830" width="105.09" height="80" as="geometry" />
        </mxCell>
        <mxCell id="RAGIyue1oJIA4O3M2heJ-26" style="edgeStyle=orthogonalEdgeStyle;rounded=0;orthogonalLoop=1;jettySize=auto;html=1;exitX=0.5;exitY=1;exitDx=0;exitDy=0;entryX=0.5;entryY=0;entryDx=0;entryDy=0;" parent="WIyWlLk6GJQsqaUBKTNV-1" source="RAGIyue1oJIA4O3M2heJ-5" target="RAGIyue1oJIA4O3M2heJ-3" edge="1">
          <mxGeometry relative="1" as="geometry" />
        </mxCell>
        <mxCell id="RAGIyue1oJIA4O3M2heJ-5" value="&lt;font style=&quot;font-size: 10px;&quot;&gt;&lt;br&gt;&lt;/font&gt;&quot;NUMERO&quot;" style="html=1;strokeWidth=1;shape=manualInput;whiteSpace=wrap;rounded=1;size=26;arcSize=11;fillColor=#D4E1F5;" parent="WIyWlLk6GJQsqaUBKTNV-1" vertex="1">
          <mxGeometry x="274.84999999999997" y="-900" width="83.73" height="50" as="geometry" />
        </mxCell>
        <mxCell id="RAGIyue1oJIA4O3M2heJ-39" style="edgeStyle=orthogonalEdgeStyle;rounded=0;orthogonalLoop=1;jettySize=auto;html=1;exitX=0.5;exitY=1;exitDx=0;exitDy=0;" parent="WIyWlLk6GJQsqaUBKTNV-1" source="RAGIyue1oJIA4O3M2heJ-6" target="RAGIyue1oJIA4O3M2heJ-10" edge="1">
          <mxGeometry relative="1" as="geometry" />
        </mxCell>
        <mxCell id="RAGIyue1oJIA4O3M2heJ-6" value="&lt;div style=&quot;text-align: justify;&quot;&gt;&lt;font style=&quot;font-size: 10px;&quot;&gt;SALDO= ESTOQUE + ENTRADA&lt;/font&gt;&lt;/div&gt;" style="rounded=0;whiteSpace=wrap;html=1;fillColor=#D4E1F5;" parent="WIyWlLk6GJQsqaUBKTNV-1" vertex="1">
          <mxGeometry x="101.46000000000001" y="-450" width="183.5" height="30" as="geometry" />
        </mxCell>
        <mxCell id="RAGIyue1oJIA4O3M2heJ-40" style="edgeStyle=orthogonalEdgeStyle;rounded=0;orthogonalLoop=1;jettySize=auto;html=1;entryX=0.5;entryY=0;entryDx=0;entryDy=0;entryPerimeter=0;" parent="WIyWlLk6GJQsqaUBKTNV-1" source="RAGIyue1oJIA4O3M2heJ-7" target="RAGIyue1oJIA4O3M2heJ-10" edge="1">
          <mxGeometry relative="1" as="geometry" />
        </mxCell>
        <mxCell id="RAGIyue1oJIA4O3M2heJ-7" value="&lt;div style=&quot;text-align: justify;&quot;&gt;&lt;font style=&quot;font-size: 10px;&quot;&gt;SALDO= ESTOQUE - VENDA&lt;/font&gt;&lt;/div&gt;" style="rounded=0;whiteSpace=wrap;html=1;fillColor=#D4E1F5;" parent="WIyWlLk6GJQsqaUBKTNV-1" vertex="1">
          <mxGeometry x="337.6000000000001" y="-450" width="177.04" height="30" as="geometry" />
        </mxCell>
        <mxCell id="RAGIyue1oJIA4O3M2heJ-20" style="edgeStyle=orthogonalEdgeStyle;rounded=0;orthogonalLoop=1;jettySize=auto;html=1;entryX=0.573;entryY=0.193;entryDx=0;entryDy=0;entryPerimeter=0;" parent="WIyWlLk6GJQsqaUBKTNV-1" source="RAGIyue1oJIA4O3M2heJ-8" target="RAGIyue1oJIA4O3M2heJ-12" edge="1">
          <mxGeometry relative="1" as="geometry" />
        </mxCell>
        <mxCell id="RAGIyue1oJIA4O3M2heJ-8" value="&lt;span style=&quot;&quot;&gt;&lt;font style=&quot;font-size: 10px;&quot;&gt;INFORME A QTD&lt;br&gt;&amp;nbsp;DA COMPRA&lt;/font&gt;&lt;br&gt;&lt;/span&gt;" style="strokeWidth=1;html=1;shape=mxgraph.flowchart.display;whiteSpace=wrap;fillColor=#D4E1F5;" parent="WIyWlLk6GJQsqaUBKTNV-1" vertex="1">
          <mxGeometry x="133.82" y="-715" width="130.97" height="50" as="geometry" />
        </mxCell>
        <mxCell id="RAGIyue1oJIA4O3M2heJ-17" style="edgeStyle=orthogonalEdgeStyle;rounded=0;orthogonalLoop=1;jettySize=auto;html=1;exitX=0.5;exitY=1;exitDx=0;exitDy=0;exitPerimeter=0;entryX=0.5;entryY=0;entryDx=0;entryDy=0;" parent="WIyWlLk6GJQsqaUBKTNV-1" source="RAGIyue1oJIA4O3M2heJ-9" target="RAGIyue1oJIA4O3M2heJ-13" edge="1">
          <mxGeometry relative="1" as="geometry" />
        </mxCell>
        <mxCell id="RAGIyue1oJIA4O3M2heJ-9" value="&lt;span style=&quot;&quot;&gt;&lt;font style=&quot;font-size: 10px;&quot;&gt;INFORME A QTD&lt;br&gt;&amp;nbsp;DA VENDA&lt;/font&gt;&lt;br&gt;&lt;/span&gt;" style="strokeWidth=1;html=1;shape=mxgraph.flowchart.display;whiteSpace=wrap;fillColor=#D4E1F5;" parent="WIyWlLk6GJQsqaUBKTNV-1" vertex="1">
          <mxGeometry x="363.74" y="-755" width="121.42" height="55" as="geometry" />
        </mxCell>
        <mxCell id="RAGIyue1oJIA4O3M2heJ-32" style="edgeStyle=orthogonalEdgeStyle;rounded=0;orthogonalLoop=1;jettySize=auto;html=1;exitX=0.5;exitY=1;exitDx=0;exitDy=0;exitPerimeter=0;entryX=0.5;entryY=0;entryDx=0;entryDy=0;entryPerimeter=0;" parent="WIyWlLk6GJQsqaUBKTNV-1" source="RAGIyue1oJIA4O3M2heJ-10" target="RAGIyue1oJIA4O3M2heJ-27" edge="1">
          <mxGeometry relative="1" as="geometry" />
        </mxCell>
        <mxCell id="RAGIyue1oJIA4O3M2heJ-10" value="&lt;span style=&quot;font-size: 10px;&quot;&gt;NOVO&amp;nbsp; VALOR DO &lt;br&gt;ESTOQUE&amp;nbsp;&amp;nbsp;É &quot;SALDO&quot;&lt;br&gt;&lt;/span&gt;" style="strokeWidth=1;html=1;shape=mxgraph.flowchart.display;whiteSpace=wrap;fillColor=#D4E1F5;" parent="WIyWlLk6GJQsqaUBKTNV-1" vertex="1">
          <mxGeometry x="235.68" y="-380" width="153.45" height="50" as="geometry" />
        </mxCell>
        <mxCell id="RAGIyue1oJIA4O3M2heJ-21" style="edgeStyle=orthogonalEdgeStyle;rounded=0;orthogonalLoop=1;jettySize=auto;html=1;" parent="WIyWlLk6GJQsqaUBKTNV-1" source="RAGIyue1oJIA4O3M2heJ-12" target="RAGIyue1oJIA4O3M2heJ-6" edge="1">
          <mxGeometry relative="1" as="geometry" />
        </mxCell>
        <mxCell id="RAGIyue1oJIA4O3M2heJ-12" value="&lt;font style=&quot;font-size: 10px;&quot;&gt;&lt;br&gt;&quot;COMPRA&quot;&lt;/font&gt;" style="html=1;strokeWidth=1;shape=manualInput;whiteSpace=wrap;rounded=1;size=26;arcSize=11;fillColor=#D4E1F5;" parent="WIyWlLk6GJQsqaUBKTNV-1" vertex="1">
          <mxGeometry x="145.72" y="-590" width="94.98" height="50" as="geometry" />
        </mxCell>
        <mxCell id="RAGIyue1oJIA4O3M2heJ-16" style="edgeStyle=orthogonalEdgeStyle;rounded=0;orthogonalLoop=1;jettySize=auto;html=1;exitX=0.5;exitY=1;exitDx=0;exitDy=0;entryX=0.5;entryY=0;entryDx=0;entryDy=0;" parent="WIyWlLk6GJQsqaUBKTNV-1" source="RAGIyue1oJIA4O3M2heJ-13" target="cExCAnARuNKjbpSgv8N--27" edge="1">
          <mxGeometry relative="1" as="geometry" />
        </mxCell>
        <mxCell id="RAGIyue1oJIA4O3M2heJ-13" value="&lt;font style=&quot;font-size: 10px;&quot;&gt;&lt;br&gt;&quot;VENDA&quot;&lt;/font&gt;" style="html=1;strokeWidth=1;shape=manualInput;whiteSpace=wrap;rounded=1;size=26;arcSize=11;fillColor=#D4E1F5;" parent="WIyWlLk6GJQsqaUBKTNV-1" vertex="1">
          <mxGeometry x="378.75" y="-680" width="91.41" height="46" as="geometry" />
        </mxCell>
        <mxCell id="RAGIyue1oJIA4O3M2heJ-29" style="edgeStyle=orthogonalEdgeStyle;rounded=0;orthogonalLoop=1;jettySize=auto;html=1;exitX=0.5;exitY=1;exitDx=0;exitDy=0;exitPerimeter=0;entryX=0.5;entryY=0;entryDx=0;entryDy=0;" parent="WIyWlLk6GJQsqaUBKTNV-1" source="RAGIyue1oJIA4O3M2heJ-27" target="RAGIyue1oJIA4O3M2heJ-28" edge="1">
          <mxGeometry relative="1" as="geometry" />
        </mxCell>
        <mxCell id="RAGIyue1oJIA4O3M2heJ-27" value="&lt;span style=&quot;font-size: 10px;&quot;&gt;&lt;br&gt;PRETENDE CONTINUAR ?&lt;br&gt;DIGITE A LETRA&lt;br&gt;S-SIM / N-NÃO&lt;br&gt;&lt;/span&gt;" style="strokeWidth=1;html=1;shape=mxgraph.flowchart.display;whiteSpace=wrap;fillColor=#D4E1F5;" parent="WIyWlLk6GJQsqaUBKTNV-1" vertex="1">
          <mxGeometry x="232.38" y="-310" width="156.75" height="60" as="geometry" />
        </mxCell>
        <mxCell id="RAGIyue1oJIA4O3M2heJ-33" style="edgeStyle=orthogonalEdgeStyle;rounded=0;orthogonalLoop=1;jettySize=auto;html=1;exitX=0.5;exitY=1;exitDx=0;exitDy=0;entryX=0.5;entryY=0;entryDx=0;entryDy=0;" parent="WIyWlLk6GJQsqaUBKTNV-1" source="RAGIyue1oJIA4O3M2heJ-28" target="RAGIyue1oJIA4O3M2heJ-30" edge="1">
          <mxGeometry relative="1" as="geometry" />
        </mxCell>
        <mxCell id="RAGIyue1oJIA4O3M2heJ-28" value="&lt;font style=&quot;font-size: 10px;&quot;&gt;&lt;br&gt;&quot;LETRA&quot;&lt;/font&gt;" style="html=1;strokeWidth=1;shape=manualInput;whiteSpace=wrap;rounded=1;size=26;arcSize=11;fillColor=#D4E1F5;" parent="WIyWlLk6GJQsqaUBKTNV-1" vertex="1">
          <mxGeometry x="254.84000000000003" y="-220" width="90" height="50" as="geometry" />
        </mxCell>
        <mxCell id="RAGIyue1oJIA4O3M2heJ-42" value="SIM" style="edgeStyle=orthogonalEdgeStyle;rounded=0;orthogonalLoop=1;jettySize=auto;html=1;entryX=0;entryY=0.5;entryDx=0;entryDy=0;entryPerimeter=0;" parent="WIyWlLk6GJQsqaUBKTNV-1" source="RAGIyue1oJIA4O3M2heJ-30" target="RAGIyue1oJIA4O3M2heJ-2" edge="1">
          <mxGeometry x="-0.948" y="-5" relative="1" as="geometry">
            <Array as="points">
              <mxPoint x="70" y="-95" />
              <mxPoint x="70" y="-955" />
            </Array>
            <mxPoint as="offset" />
          </mxGeometry>
        </mxCell>
        <mxCell id="GZpaEnWMNQuoyQWXM_Iq-1" value="NÃO" style="edgeStyle=orthogonalEdgeStyle;rounded=0;orthogonalLoop=1;jettySize=auto;html=1;exitX=1;exitY=0.5;exitDx=0;exitDy=0;" edge="1" parent="WIyWlLk6GJQsqaUBKTNV-1" source="RAGIyue1oJIA4O3M2heJ-30" target="GZpaEnWMNQuoyQWXM_Iq-0">
          <mxGeometry relative="1" as="geometry" />
        </mxCell>
        <mxCell id="RAGIyue1oJIA4O3M2heJ-30" value="LETRA == S" style="rhombus;whiteSpace=wrap;html=1;fillColor=#D4E1F5;" parent="WIyWlLk6GJQsqaUBKTNV-1" vertex="1">
          <mxGeometry x="240.7" y="-140" width="112.48" height="90" as="geometry" />
        </mxCell>
        <mxCell id="GZpaEnWMNQuoyQWXM_Iq-2" style="edgeStyle=orthogonalEdgeStyle;rounded=0;orthogonalLoop=1;jettySize=auto;html=1;exitX=1;exitY=0.5;exitDx=0;exitDy=0;exitPerimeter=0;entryX=0;entryY=0.5;entryDx=0;entryDy=0;" edge="1" parent="WIyWlLk6GJQsqaUBKTNV-1" source="GZpaEnWMNQuoyQWXM_Iq-0" target="cExCAnARuNKjbpSgv8N--32">
          <mxGeometry relative="1" as="geometry" />
        </mxCell>
        <mxCell id="GZpaEnWMNQuoyQWXM_Iq-0" value="&lt;span style=&quot;font-size: 10px;&quot;&gt;SISTEMA FINALIZADO !&lt;br&gt;&lt;/span&gt;" style="strokeWidth=1;html=1;shape=mxgraph.flowchart.display;whiteSpace=wrap;fillColor=#D4E1F5;" vertex="1" parent="WIyWlLk6GJQsqaUBKTNV-1">
          <mxGeometry x="440" y="-120" width="153.45" height="50" as="geometry" />
        </mxCell>
      </root>
    </mxGraphModel>
  </diagram>
</mxfile>
